<svg width="245" height="28" viewBox="0 0 245 28" fill="none" xmlns="http://www.w3.org/2000/svg">
<path d="M9.12 0.279999H12.512L21.344 23H17.568L15.168 16.824H6.4L4.032 23H0.224L9.12 0.279999ZM14.464 14.168L10.816 4.216L7.04 14.168H14.464ZM22.6497 27.352V19.832H23.7378C24.3351 19.832 24.8471 19.5973 25.2738 19.128C25.7218 18.6587 26.0951 17.912 26.3938 16.888C26.7138 15.864 26.9591 14.52 27.1298 12.856C27.3218 11.1707 27.4604 9.112 27.5458 6.68L27.7058 0.279999H42.3298V19.832H45.2098V27.352H42.0418V23H25.8177V27.352H22.6497ZM28.2818 19.832H38.7138V3.448H31.0338L30.9378 7.16C30.8738 9.61333 30.7458 11.6933 30.5538 13.4C30.3618 15.0853 30.0844 16.4507 29.7218 17.496C29.3591 18.5413 28.8791 19.32 28.2818 19.832ZM67.9765 23V6.808L61.2885 19.096H59.1765L52.4565 6.808V23H48.8725V0.279999H52.7125L60.2325 14.168L67.7525 0.279999H71.5925V23H67.9765ZM76.7163 23V0.279999H80.3003V23H76.7163ZM104.091 0.279999V23H100.475V12.984H89.019V23H85.435V0.279999H89.019V9.784H100.475V0.279999H104.091ZM117.155 23V0.279999H135.107V23H131.491V3.448H120.739V23H117.155ZM146.808 0.279999H150.2L159.032 23H155.256L152.856 16.824H144.088L141.72 23H137.912L146.808 0.279999ZM152.152 14.168L148.504 4.216L144.728 14.168H152.152ZM180.497 0.279999V23H176.881V12.984H165.425V23H161.841V0.279999H165.425V9.784H176.881V0.279999H180.497ZM201.207 19.832V23H185.623V0.279999H200.919V3.448H189.207V9.912H199.351V12.888H189.207V19.832H201.207ZM219.656 23V3.448H212.072L211.944 7.672C211.816 10.7227 211.57 13.2507 211.208 15.256C210.845 17.24 210.322 18.808 209.64 19.96C208.957 21.0907 208.104 21.9013 207.08 22.392C206.056 22.8613 204.829 23.096 203.4 23.096V19.96C204.189 19.96 204.882 19.7787 205.48 19.416C206.077 19.032 206.578 18.36 206.984 17.4C207.41 16.44 207.741 15.096 207.976 13.368C208.232 11.6187 208.402 9.38933 208.488 6.68L208.712 0.279999H223.272V23H219.656ZM228.436 23V0.279999H232.02V8.664H237.108C238.772 8.664 240.169 8.96267 241.3 9.56C242.43 10.136 243.294 10.9573 243.892 12.024C244.489 13.0907 244.788 14.3493 244.788 15.8C244.788 17.1653 244.5 18.4027 243.924 19.512C243.348 20.6 242.505 21.4533 241.396 22.072C240.286 22.6907 238.932 23 237.332 23H228.436ZM232.02 20.024H236.82C237.822 20.024 238.633 19.832 239.252 19.448C239.892 19.064 240.361 18.552 240.66 17.912C240.958 17.2507 241.108 16.5467 241.108 15.8C241.108 15.0747 240.969 14.392 240.692 13.752C240.436 13.112 239.988 12.6 239.348 12.216C238.708 11.832 237.854 11.64 236.788 11.64H232.02V20.024Z" fill="#3F51B5"/>
</svg>
